<svg width="100" height="100" viewBox="0 0 100 100" fill="none" xmlns="http://www.w3.org/2000/svg">
<path d="M46.7458 14.0625L33.3333 30.8292L19.9208 14.0625C18.8125 12.6792 16.95 12.15 15.2875 12.7333C13.6208 13.3208 12.5 14.8958 12.5 16.6667V79.1667C12.5 83.7625 16.2375 87.5 20.8333 87.5H79.1667C83.7625 87.5 87.5 83.7625 87.5 79.1667V16.6667C87.5 14.8958 86.3792 13.3208 84.7125 12.7333C83.0458 12.1583 81.1875 12.6833 80.0792 14.0625L66.6667 30.8292L53.2542 14.0625C51.6667 12.0875 48.3333 12.0875 46.7458 14.0625ZM20.8333 79.1667V70.8333H79.1708V79.1667H20.8333ZM63.4125 40.1042C65 42.0833 68.3375 42.0833 69.925 40.1042L79.1667 28.5458L79.1708 62.5H20.8333V28.5458L30.0792 40.1042C31.6667 42.0833 35.0042 42.0833 36.5917 40.1042L50 23.3375L63.4125 40.1042Z" fill="white"/>
</svg>
